# xmcd CD database file
#
# Track frame offsets:
#	150
#	26237
#	48721
#	67060
#	80081
#	97142
#	105157
#	118147
#	132729
#	147758
#	154054
#	163310
#	182952
#	202510
#	208414
#
# Disc length: 3368 seconds
#
# Revision: 0
# Processed by: cddbd v1.5.2PL0 Copyright (c) Steve Scherf et al.
# Submitted via: CDex 1.70beta2
#
DISCID=e90d260f
DTITLE=Marc Ribot - Exercises in Futility
DYEAR=2007
DGENRE=Jazz
TTITLE0=Exercises in Futility - Etude #1 five gestures
TTITLE1=Exercises in Futility - Etude #2 morton 1
TTITLE2=Exercises in Futility - Etude #3 elvis
TTITLE3=Exercises in Futility - Etude #4 bombasto
TTITLE4=Exercises in Futility - Etude #5 lame
TTITLE5=Exercises in Futility - Etude #6 cowboy
TTITLE6=Exercises in Futility - Etude #7 ballad
TTITLE7=Exercises in Futility - Etude #8 groove?
TTITLE8=Exercises in Futility - Etude #9 morton 2
TTITLE9=Exercises in Futility - Etude #10 min
TTITLE10=Exercises in Futility - Etude #11 ascending
TTITLE11=Exercises in Futility - Etude #12 mirror
TTITLE12=Exercises in Futility - Etude #13 wank
TTITLE13=Exercises in Futility - Etude #14 event on 10th avenue
TTITLE14=The Joy of Repetition
EXTD=YEAR: 2007
EXTT0=
EXTT1=
EXTT2=
EXTT3=
EXTT4=
EXTT5=
EXTT6=
EXTT7=
EXTT8=
EXTT9=
EXTT10=
EXTT11=
EXTT12=
EXTT13=
EXTT14=
PLAYORDER=
